# xmcd
#
# Track frame offsets: 
#        150
#        22890
#        62592
#        88412
#        115085
#        148802
#        170452
#        202275
#
# Disc length: 2976 seconds
#
# Revision: 0
# Processed by: cddbd v1.4PL0 Copyright (c) Steve Scherf et al.
# Submitted via: ExactAudioCopy v0.90a11
#
DISCID=720b9e08
DTITLE=Cuby and Blizzards - Afscheidsconcert
DYEAR=1900
DGENRE=
TTITLE0=Rock me, baby
TTITLE1=I'm in Love
TTITLE2=Checkin'up on my Baby
TTITLE3=Night Train
TTITLE4=Hobo blues
TTITLE5=Distant Smile
TTITLE6=Somebody will know Someday
TTITLE7=Johnny B. Goode
EXTD=
EXTT0=
EXTT1=
EXTT2=
EXTT3=
EXTT4=
EXTT5=
EXTT6=
EXTT7=
PLAYORDER=
